<mxfile host="app.diagrams.net" modified="2023-03-10T16:03:29.361Z" agent="5.0 (Windows NT 10.0; Win64; x64) AppleWebKit/537.36 (KHTML, like Gecko) Chrome/110.0.0.0 Safari/537.36" etag="jEgQjink-d-Vat3BuOfy" version="21.0.6" type="github">
  <diagram name="Page-1" id="8wNb66az-S5-MYoD6Dzn">
    <mxGraphModel dx="2963" dy="1729" grid="1" gridSize="10" guides="1" tooltips="1" connect="1" arrows="1" fold="1" page="1" pageScale="1" pageWidth="10000" pageHeight="10000" math="0" shadow="0">
      <root>
        <mxCell id="0" />
        <mxCell id="1" style="" parent="0" />
        <mxCell id="hY6Mu5wa5ivJoahVfjo8-3" value="User" style="whiteSpace=wrap;html=1;fontSize=16;imageAspect=1;" vertex="1" parent="1">
          <mxGeometry x="160" y="400" width="160" height="160" as="geometry" />
        </mxCell>
        <mxCell id="hY6Mu5wa5ivJoahVfjo8-4" value="Task Management System" style="whiteSpace=wrap;html=1;fontSize=16;imageAspect=1;absoluteArcSize=0;rounded=1;" vertex="1" parent="1">
          <mxGeometry x="800" y="400" width="160" height="160" as="geometry" />
        </mxCell>
        <mxCell id="hY6Mu5wa5ivJoahVfjo8-32" style="edgeStyle=none;rounded=0;orthogonalLoop=1;jettySize=auto;html=1;fontSize=12;startSize=8;endSize=8;entryX=0;entryY=0.25;entryDx=0;entryDy=0;exitX=1;exitY=0.25;exitDx=0;exitDy=0;" edge="1" parent="1" source="hY6Mu5wa5ivJoahVfjo8-3" target="hY6Mu5wa5ivJoahVfjo8-4">
          <mxGeometry relative="1" as="geometry">
            <mxPoint x="320" y="340" as="sourcePoint" />
            <mxPoint x="640" y="340" as="targetPoint" />
          </mxGeometry>
        </mxCell>
        <mxCell id="hY6Mu5wa5ivJoahVfjo8-33" value="Notebook/Task/Reminder/Notes/Tag/Ringtone Detail" style="edgeLabel;html=1;align=center;verticalAlign=middle;resizable=0;points=[];fontSize=16;" vertex="1" connectable="0" parent="hY6Mu5wa5ivJoahVfjo8-32">
          <mxGeometry relative="1" as="geometry">
            <mxPoint as="offset" />
          </mxGeometry>
        </mxCell>
        <mxCell id="hY6Mu5wa5ivJoahVfjo8-65" style="edgeStyle=none;rounded=0;orthogonalLoop=1;jettySize=auto;html=1;fontSize=12;startSize=8;endSize=8;exitX=0;exitY=0.5;exitDx=0;exitDy=0;entryX=1;entryY=0.5;entryDx=0;entryDy=0;" edge="1" parent="1" source="hY6Mu5wa5ivJoahVfjo8-4" target="hY6Mu5wa5ivJoahVfjo8-3">
          <mxGeometry relative="1" as="geometry">
            <mxPoint x="640" y="540" as="sourcePoint" />
            <mxPoint x="320" y="540" as="targetPoint" />
          </mxGeometry>
        </mxCell>
        <mxCell id="hY6Mu5wa5ivJoahVfjo8-66" value="Filtered/Non-filtered List of &lt;br&gt;Notebooks/Tasks/Reminders/Notes/Tags/Ringtone" style="edgeLabel;html=1;align=center;verticalAlign=middle;resizable=0;points=[];fontSize=16;" vertex="1" connectable="0" parent="hY6Mu5wa5ivJoahVfjo8-65">
          <mxGeometry relative="1" as="geometry">
            <mxPoint as="offset" />
          </mxGeometry>
        </mxCell>
        <mxCell id="hY6Mu5wa5ivJoahVfjo8-71" style="edgeStyle=none;rounded=0;orthogonalLoop=1;jettySize=auto;html=1;fontSize=12;startSize=8;endSize=8;exitX=0;exitY=0.75;exitDx=0;exitDy=0;entryX=1;entryY=0.75;entryDx=0;entryDy=0;" edge="1" parent="1" source="hY6Mu5wa5ivJoahVfjo8-4" target="hY6Mu5wa5ivJoahVfjo8-3">
          <mxGeometry relative="1" as="geometry">
            <mxPoint x="760" y="560" as="sourcePoint" />
            <mxPoint x="240" y="560" as="targetPoint" />
          </mxGeometry>
        </mxCell>
        <mxCell id="hY6Mu5wa5ivJoahVfjo8-72" value="Notebook/Task/Reminder/Note/Info Info" style="edgeLabel;html=1;align=center;verticalAlign=middle;resizable=0;points=[];fontSize=16;" vertex="1" connectable="0" parent="hY6Mu5wa5ivJoahVfjo8-71">
          <mxGeometry relative="1" as="geometry">
            <mxPoint as="offset" />
          </mxGeometry>
        </mxCell>
        <mxCell id="hY6Mu5wa5ivJoahVfjo8-129" style="edgeStyle=none;curved=1;rounded=0;orthogonalLoop=1;jettySize=auto;html=1;fontSize=12;startSize=8;endSize=8;" edge="1" parent="1" source="hY6Mu5wa5ivJoahVfjo8-73" target="hY6Mu5wa5ivJoahVfjo8-128">
          <mxGeometry relative="1" as="geometry" />
        </mxCell>
        <mxCell id="hY6Mu5wa5ivJoahVfjo8-133" value="Processed Notebook Detail" style="edgeLabel;html=1;align=center;verticalAlign=middle;resizable=0;points=[];fontSize=16;" vertex="1" connectable="0" parent="hY6Mu5wa5ivJoahVfjo8-129">
          <mxGeometry x="0.1587" y="3" relative="1" as="geometry">
            <mxPoint as="offset" />
          </mxGeometry>
        </mxCell>
        <mxCell id="hY6Mu5wa5ivJoahVfjo8-139" style="edgeStyle=none;curved=1;rounded=0;orthogonalLoop=1;jettySize=auto;html=1;fontSize=12;startSize=8;endSize=8;" edge="1" parent="1" source="hY6Mu5wa5ivJoahVfjo8-73" target="hY6Mu5wa5ivJoahVfjo8-121">
          <mxGeometry relative="1" as="geometry" />
        </mxCell>
        <mxCell id="hY6Mu5wa5ivJoahVfjo8-140" value="Processed Notebook Detail" style="edgeLabel;html=1;align=center;verticalAlign=middle;resizable=0;points=[];fontSize=16;" vertex="1" connectable="0" parent="hY6Mu5wa5ivJoahVfjo8-139">
          <mxGeometry relative="1" as="geometry">
            <mxPoint as="offset" />
          </mxGeometry>
        </mxCell>
        <mxCell id="hY6Mu5wa5ivJoahVfjo8-73" value="Notebook Store" style="whiteSpace=wrap;html=1;fontSize=16;imageAspect=1;" vertex="1" parent="1">
          <mxGeometry x="4760" y="1750" width="320" height="80" as="geometry" />
        </mxCell>
        <mxCell id="hY6Mu5wa5ivJoahVfjo8-77" style="edgeStyle=none;curved=1;rounded=0;orthogonalLoop=1;jettySize=auto;html=1;fontSize=12;startSize=8;endSize=8;" edge="1" parent="1" source="hY6Mu5wa5ivJoahVfjo8-74" target="hY6Mu5wa5ivJoahVfjo8-76">
          <mxGeometry relative="1" as="geometry" />
        </mxCell>
        <mxCell id="hY6Mu5wa5ivJoahVfjo8-78" value="Notebook Detail" style="edgeLabel;html=1;align=center;verticalAlign=middle;resizable=0;points=[];fontSize=16;" vertex="1" connectable="0" parent="hY6Mu5wa5ivJoahVfjo8-77">
          <mxGeometry relative="1" as="geometry">
            <mxPoint as="offset" />
          </mxGeometry>
        </mxCell>
        <mxCell id="hY6Mu5wa5ivJoahVfjo8-86" style="edgeStyle=none;curved=1;rounded=0;orthogonalLoop=1;jettySize=auto;html=1;fontSize=12;startSize=8;endSize=8;" edge="1" parent="1" source="hY6Mu5wa5ivJoahVfjo8-74" target="hY6Mu5wa5ivJoahVfjo8-82">
          <mxGeometry relative="1" as="geometry" />
        </mxCell>
        <mxCell id="hY6Mu5wa5ivJoahVfjo8-87" value="Note Detail" style="edgeLabel;html=1;align=center;verticalAlign=middle;resizable=0;points=[];fontSize=16;" vertex="1" connectable="0" parent="hY6Mu5wa5ivJoahVfjo8-86">
          <mxGeometry relative="1" as="geometry">
            <mxPoint as="offset" />
          </mxGeometry>
        </mxCell>
        <mxCell id="hY6Mu5wa5ivJoahVfjo8-95" style="edgeStyle=none;curved=1;rounded=0;orthogonalLoop=1;jettySize=auto;html=1;fontSize=12;startSize=8;endSize=8;" edge="1" parent="1" source="hY6Mu5wa5ivJoahVfjo8-74" target="hY6Mu5wa5ivJoahVfjo8-92">
          <mxGeometry relative="1" as="geometry" />
        </mxCell>
        <mxCell id="hY6Mu5wa5ivJoahVfjo8-96" value="Task Detail" style="edgeLabel;html=1;align=center;verticalAlign=middle;resizable=0;points=[];fontSize=16;" vertex="1" connectable="0" parent="hY6Mu5wa5ivJoahVfjo8-95">
          <mxGeometry relative="1" as="geometry">
            <mxPoint as="offset" />
          </mxGeometry>
        </mxCell>
        <mxCell id="hY6Mu5wa5ivJoahVfjo8-97" style="edgeStyle=none;curved=1;rounded=0;orthogonalLoop=1;jettySize=auto;html=1;fontSize=12;startSize=8;endSize=8;" edge="1" parent="1" source="hY6Mu5wa5ivJoahVfjo8-74" target="hY6Mu5wa5ivJoahVfjo8-93">
          <mxGeometry relative="1" as="geometry" />
        </mxCell>
        <mxCell id="hY6Mu5wa5ivJoahVfjo8-98" value="Reminder Detail" style="edgeLabel;html=1;align=center;verticalAlign=middle;resizable=0;points=[];fontSize=16;" vertex="1" connectable="0" parent="hY6Mu5wa5ivJoahVfjo8-97">
          <mxGeometry relative="1" as="geometry">
            <mxPoint as="offset" />
          </mxGeometry>
        </mxCell>
        <mxCell id="hY6Mu5wa5ivJoahVfjo8-99" style="edgeStyle=none;curved=1;rounded=0;orthogonalLoop=1;jettySize=auto;html=1;fontSize=12;startSize=8;endSize=8;" edge="1" parent="1" source="hY6Mu5wa5ivJoahVfjo8-74" target="hY6Mu5wa5ivJoahVfjo8-94">
          <mxGeometry relative="1" as="geometry" />
        </mxCell>
        <mxCell id="hY6Mu5wa5ivJoahVfjo8-102" value="Tag Detail" style="edgeLabel;html=1;align=center;verticalAlign=middle;resizable=0;points=[];fontSize=16;" vertex="1" connectable="0" parent="hY6Mu5wa5ivJoahVfjo8-99">
          <mxGeometry relative="1" as="geometry">
            <mxPoint as="offset" />
          </mxGeometry>
        </mxCell>
        <mxCell id="hY6Mu5wa5ivJoahVfjo8-142" style="edgeStyle=none;curved=1;rounded=0;orthogonalLoop=1;jettySize=auto;html=1;fontSize=12;startSize=8;endSize=8;" edge="1" parent="1" source="hY6Mu5wa5ivJoahVfjo8-74" target="hY6Mu5wa5ivJoahVfjo8-141">
          <mxGeometry relative="1" as="geometry" />
        </mxCell>
        <mxCell id="hY6Mu5wa5ivJoahVfjo8-143" value="Ringtone Detail" style="edgeLabel;html=1;align=center;verticalAlign=middle;resizable=0;points=[];fontSize=16;" vertex="1" connectable="0" parent="hY6Mu5wa5ivJoahVfjo8-142">
          <mxGeometry relative="1" as="geometry">
            <mxPoint as="offset" />
          </mxGeometry>
        </mxCell>
        <mxCell id="hY6Mu5wa5ivJoahVfjo8-148" style="edgeStyle=none;curved=1;rounded=0;orthogonalLoop=1;jettySize=auto;html=1;fontSize=12;startSize=8;endSize=8;" edge="1" parent="1" source="hY6Mu5wa5ivJoahVfjo8-74" target="hY6Mu5wa5ivJoahVfjo8-147">
          <mxGeometry relative="1" as="geometry" />
        </mxCell>
        <mxCell id="hY6Mu5wa5ivJoahVfjo8-150" value="Updated Ringtone Detail" style="edgeLabel;html=1;align=center;verticalAlign=middle;resizable=0;points=[];fontSize=16;" vertex="1" connectable="0" parent="hY6Mu5wa5ivJoahVfjo8-148">
          <mxGeometry relative="1" as="geometry">
            <mxPoint as="offset" />
          </mxGeometry>
        </mxCell>
        <mxCell id="hY6Mu5wa5ivJoahVfjo8-163" style="edgeStyle=none;curved=1;rounded=0;orthogonalLoop=1;jettySize=auto;html=1;fontSize=12;startSize=8;endSize=8;" edge="1" parent="1" source="hY6Mu5wa5ivJoahVfjo8-74" target="hY6Mu5wa5ivJoahVfjo8-162">
          <mxGeometry relative="1" as="geometry" />
        </mxCell>
        <mxCell id="hY6Mu5wa5ivJoahVfjo8-165" value="Updated Tag Detail" style="edgeLabel;html=1;align=center;verticalAlign=middle;resizable=0;points=[];fontSize=16;" vertex="1" connectable="0" parent="hY6Mu5wa5ivJoahVfjo8-163">
          <mxGeometry relative="1" as="geometry">
            <mxPoint as="offset" />
          </mxGeometry>
        </mxCell>
        <mxCell id="hY6Mu5wa5ivJoahVfjo8-171" style="edgeStyle=none;curved=1;rounded=0;orthogonalLoop=1;jettySize=auto;html=1;fontSize=12;startSize=8;endSize=8;" edge="1" parent="1" source="hY6Mu5wa5ivJoahVfjo8-74" target="hY6Mu5wa5ivJoahVfjo8-170">
          <mxGeometry relative="1" as="geometry" />
        </mxCell>
        <mxCell id="hY6Mu5wa5ivJoahVfjo8-172" value="Updated Notebook Detail" style="edgeLabel;html=1;align=center;verticalAlign=middle;resizable=0;points=[];fontSize=16;" vertex="1" connectable="0" parent="hY6Mu5wa5ivJoahVfjo8-171">
          <mxGeometry relative="1" as="geometry">
            <mxPoint as="offset" />
          </mxGeometry>
        </mxCell>
        <mxCell id="hY6Mu5wa5ivJoahVfjo8-74" value="User" style="whiteSpace=wrap;html=1;fontSize=16;imageAspect=1;" vertex="1" parent="1">
          <mxGeometry x="2590" y="2040" width="160" height="160" as="geometry" />
        </mxCell>
        <mxCell id="hY6Mu5wa5ivJoahVfjo8-80" style="edgeStyle=none;curved=1;rounded=0;orthogonalLoop=1;jettySize=auto;html=1;fontSize=12;startSize=8;endSize=8;" edge="1" parent="1" source="hY6Mu5wa5ivJoahVfjo8-76" target="hY6Mu5wa5ivJoahVfjo8-73">
          <mxGeometry relative="1" as="geometry" />
        </mxCell>
        <mxCell id="hY6Mu5wa5ivJoahVfjo8-81" value="Processed Notebook Detail" style="edgeLabel;html=1;align=center;verticalAlign=middle;resizable=0;points=[];fontSize=16;" vertex="1" connectable="0" parent="hY6Mu5wa5ivJoahVfjo8-80">
          <mxGeometry relative="1" as="geometry">
            <mxPoint as="offset" />
          </mxGeometry>
        </mxCell>
        <mxCell id="hY6Mu5wa5ivJoahVfjo8-76" value="Add Notebook" style="whiteSpace=wrap;html=1;fontSize=16;imageAspect=1;absoluteArcSize=0;rounded=1;" vertex="1" parent="1">
          <mxGeometry x="3720" y="1520" width="160" height="160" as="geometry" />
        </mxCell>
        <mxCell id="hY6Mu5wa5ivJoahVfjo8-91" style="edgeStyle=none;curved=1;rounded=0;orthogonalLoop=1;jettySize=auto;html=1;fontSize=12;startSize=8;endSize=8;" edge="1" parent="1" source="hY6Mu5wa5ivJoahVfjo8-82" target="hY6Mu5wa5ivJoahVfjo8-90">
          <mxGeometry relative="1" as="geometry" />
        </mxCell>
        <mxCell id="hY6Mu5wa5ivJoahVfjo8-103" value="Processed Note Detail" style="edgeLabel;html=1;align=center;verticalAlign=middle;resizable=0;points=[];fontSize=16;" vertex="1" connectable="0" parent="hY6Mu5wa5ivJoahVfjo8-91">
          <mxGeometry relative="1" as="geometry">
            <mxPoint as="offset" />
          </mxGeometry>
        </mxCell>
        <mxCell id="hY6Mu5wa5ivJoahVfjo8-82" value="Add Note" style="whiteSpace=wrap;html=1;fontSize=16;imageAspect=1;absoluteArcSize=0;rounded=1;" vertex="1" parent="1">
          <mxGeometry x="1480" y="2990" width="160" height="160" as="geometry" />
        </mxCell>
        <mxCell id="hY6Mu5wa5ivJoahVfjo8-134" style="edgeStyle=none;curved=1;rounded=0;orthogonalLoop=1;jettySize=auto;html=1;fontSize=12;startSize=8;endSize=8;" edge="1" parent="1" source="hY6Mu5wa5ivJoahVfjo8-90" target="hY6Mu5wa5ivJoahVfjo8-121">
          <mxGeometry relative="1" as="geometry" />
        </mxCell>
        <mxCell id="hY6Mu5wa5ivJoahVfjo8-138" value="Processed Note Detail" style="edgeLabel;html=1;align=center;verticalAlign=middle;resizable=0;points=[];fontSize=16;" vertex="1" connectable="0" parent="hY6Mu5wa5ivJoahVfjo8-134">
          <mxGeometry relative="1" as="geometry">
            <mxPoint as="offset" />
          </mxGeometry>
        </mxCell>
        <mxCell id="hY6Mu5wa5ivJoahVfjo8-90" value="Note Store" style="whiteSpace=wrap;html=1;fontSize=16;imageAspect=1;" vertex="1" parent="1">
          <mxGeometry x="1490" y="4010" width="320" height="80" as="geometry" />
        </mxCell>
        <mxCell id="hY6Mu5wa5ivJoahVfjo8-105" style="edgeStyle=none;curved=1;rounded=0;orthogonalLoop=1;jettySize=auto;html=1;fontSize=12;startSize=8;endSize=8;" edge="1" parent="1" source="hY6Mu5wa5ivJoahVfjo8-92" target="hY6Mu5wa5ivJoahVfjo8-104">
          <mxGeometry relative="1" as="geometry" />
        </mxCell>
        <mxCell id="hY6Mu5wa5ivJoahVfjo8-106" value="Processed Task Detail" style="edgeLabel;html=1;align=center;verticalAlign=middle;resizable=0;points=[];fontSize=16;" vertex="1" connectable="0" parent="hY6Mu5wa5ivJoahVfjo8-105">
          <mxGeometry relative="1" as="geometry">
            <mxPoint as="offset" />
          </mxGeometry>
        </mxCell>
        <mxCell id="hY6Mu5wa5ivJoahVfjo8-92" value="Add Task" style="whiteSpace=wrap;html=1;fontSize=16;imageAspect=1;absoluteArcSize=0;rounded=1;" vertex="1" parent="1">
          <mxGeometry x="3050" y="3110" width="160" height="160" as="geometry" />
        </mxCell>
        <mxCell id="hY6Mu5wa5ivJoahVfjo8-108" style="edgeStyle=none;curved=1;rounded=0;orthogonalLoop=1;jettySize=auto;html=1;fontSize=12;startSize=8;endSize=8;" edge="1" parent="1" source="hY6Mu5wa5ivJoahVfjo8-93" target="hY6Mu5wa5ivJoahVfjo8-107">
          <mxGeometry relative="1" as="geometry" />
        </mxCell>
        <mxCell id="hY6Mu5wa5ivJoahVfjo8-110" value="Processed Reminder Detail" style="edgeLabel;html=1;align=center;verticalAlign=middle;resizable=0;points=[];fontSize=16;" vertex="1" connectable="0" parent="hY6Mu5wa5ivJoahVfjo8-108">
          <mxGeometry x="-0.1512" y="2" relative="1" as="geometry">
            <mxPoint as="offset" />
          </mxGeometry>
        </mxCell>
        <mxCell id="hY6Mu5wa5ivJoahVfjo8-93" value="Add Reminder" style="whiteSpace=wrap;html=1;fontSize=16;imageAspect=1;absoluteArcSize=0;rounded=1;" vertex="1" parent="1">
          <mxGeometry x="770" y="2310" width="160" height="160" as="geometry" />
        </mxCell>
        <mxCell id="hY6Mu5wa5ivJoahVfjo8-113" style="edgeStyle=none;curved=1;rounded=0;orthogonalLoop=1;jettySize=auto;html=1;fontSize=12;startSize=8;endSize=8;" edge="1" parent="1" source="hY6Mu5wa5ivJoahVfjo8-94" target="hY6Mu5wa5ivJoahVfjo8-112">
          <mxGeometry relative="1" as="geometry" />
        </mxCell>
        <mxCell id="hY6Mu5wa5ivJoahVfjo8-114" value="Processed Tag Detail" style="edgeLabel;html=1;align=center;verticalAlign=middle;resizable=0;points=[];fontSize=16;" vertex="1" connectable="0" parent="hY6Mu5wa5ivJoahVfjo8-113">
          <mxGeometry relative="1" as="geometry">
            <mxPoint as="offset" />
          </mxGeometry>
        </mxCell>
        <mxCell id="hY6Mu5wa5ivJoahVfjo8-94" value="Add Tag" style="whiteSpace=wrap;html=1;fontSize=16;imageAspect=1;absoluteArcSize=0;rounded=1;" vertex="1" parent="1">
          <mxGeometry x="2370" y="1130" width="160" height="160" as="geometry" />
        </mxCell>
        <mxCell id="hY6Mu5wa5ivJoahVfjo8-116" style="edgeStyle=none;curved=1;rounded=0;orthogonalLoop=1;jettySize=auto;html=1;fontSize=12;startSize=8;endSize=8;" edge="1" parent="1" source="hY6Mu5wa5ivJoahVfjo8-104" target="hY6Mu5wa5ivJoahVfjo8-115">
          <mxGeometry relative="1" as="geometry" />
        </mxCell>
        <mxCell id="hY6Mu5wa5ivJoahVfjo8-118" value="Processed Task Detail" style="edgeLabel;html=1;align=center;verticalAlign=middle;resizable=0;points=[];fontSize=16;" vertex="1" connectable="0" parent="hY6Mu5wa5ivJoahVfjo8-116">
          <mxGeometry relative="1" as="geometry">
            <mxPoint as="offset" />
          </mxGeometry>
        </mxCell>
        <mxCell id="hY6Mu5wa5ivJoahVfjo8-122" style="edgeStyle=none;curved=1;rounded=0;orthogonalLoop=1;jettySize=auto;html=1;fontSize=12;startSize=8;endSize=8;" edge="1" parent="1" source="hY6Mu5wa5ivJoahVfjo8-104" target="hY6Mu5wa5ivJoahVfjo8-121">
          <mxGeometry relative="1" as="geometry" />
        </mxCell>
        <mxCell id="hY6Mu5wa5ivJoahVfjo8-125" value="Processed Task Detail" style="edgeLabel;html=1;align=center;verticalAlign=middle;resizable=0;points=[];fontSize=16;" vertex="1" connectable="0" parent="hY6Mu5wa5ivJoahVfjo8-122">
          <mxGeometry relative="1" as="geometry">
            <mxPoint as="offset" />
          </mxGeometry>
        </mxCell>
        <mxCell id="hY6Mu5wa5ivJoahVfjo8-104" value="Task Store" style="whiteSpace=wrap;html=1;fontSize=16;imageAspect=1;" vertex="1" parent="1">
          <mxGeometry x="4130" y="3530" width="320" height="80" as="geometry" />
        </mxCell>
        <mxCell id="hY6Mu5wa5ivJoahVfjo8-135" style="edgeStyle=none;curved=1;rounded=0;orthogonalLoop=1;jettySize=auto;html=1;fontSize=12;startSize=8;endSize=8;" edge="1" parent="1" source="hY6Mu5wa5ivJoahVfjo8-107" target="hY6Mu5wa5ivJoahVfjo8-121">
          <mxGeometry relative="1" as="geometry" />
        </mxCell>
        <mxCell id="hY6Mu5wa5ivJoahVfjo8-137" value="Processed Reminder Detail" style="edgeLabel;html=1;align=center;verticalAlign=middle;resizable=0;points=[];fontSize=16;" vertex="1" connectable="0" parent="hY6Mu5wa5ivJoahVfjo8-135">
          <mxGeometry relative="1" as="geometry">
            <mxPoint as="offset" />
          </mxGeometry>
        </mxCell>
        <mxCell id="hY6Mu5wa5ivJoahVfjo8-107" value="Reminder Store" style="whiteSpace=wrap;html=1;fontSize=16;imageAspect=1;" vertex="1" parent="1">
          <mxGeometry x="210" y="3150" width="320" height="80" as="geometry" />
        </mxCell>
        <mxCell id="hY6Mu5wa5ivJoahVfjo8-126" style="edgeStyle=none;curved=1;rounded=0;orthogonalLoop=1;jettySize=auto;html=1;fontSize=12;startSize=8;endSize=8;" edge="1" parent="1" source="hY6Mu5wa5ivJoahVfjo8-112" target="hY6Mu5wa5ivJoahVfjo8-115">
          <mxGeometry relative="1" as="geometry" />
        </mxCell>
        <mxCell id="hY6Mu5wa5ivJoahVfjo8-127" value="Processed Tag Detail" style="edgeLabel;html=1;align=center;verticalAlign=middle;resizable=0;points=[];fontSize=16;" vertex="1" connectable="0" parent="hY6Mu5wa5ivJoahVfjo8-126">
          <mxGeometry relative="1" as="geometry">
            <mxPoint as="offset" />
          </mxGeometry>
        </mxCell>
        <mxCell id="hY6Mu5wa5ivJoahVfjo8-167" style="edgeStyle=none;curved=1;rounded=0;orthogonalLoop=1;jettySize=auto;html=1;fontSize=12;startSize=8;endSize=8;" edge="1" parent="1" source="hY6Mu5wa5ivJoahVfjo8-112" target="hY6Mu5wa5ivJoahVfjo8-166">
          <mxGeometry relative="1" as="geometry" />
        </mxCell>
        <mxCell id="hY6Mu5wa5ivJoahVfjo8-112" value="Tag Store" style="whiteSpace=wrap;html=1;fontSize=16;imageAspect=1;" vertex="1" parent="1">
          <mxGeometry x="2790" y="520" width="320" height="80" as="geometry" />
        </mxCell>
        <mxCell id="hY6Mu5wa5ivJoahVfjo8-119" style="edgeStyle=none;curved=1;rounded=0;orthogonalLoop=1;jettySize=auto;html=1;fontSize=12;startSize=8;endSize=8;" edge="1" parent="1" source="hY6Mu5wa5ivJoahVfjo8-115" target="hY6Mu5wa5ivJoahVfjo8-74">
          <mxGeometry relative="1" as="geometry" />
        </mxCell>
        <mxCell id="hY6Mu5wa5ivJoahVfjo8-120" value="Task List" style="edgeLabel;html=1;align=center;verticalAlign=middle;resizable=0;points=[];fontSize=16;" vertex="1" connectable="0" parent="hY6Mu5wa5ivJoahVfjo8-119">
          <mxGeometry relative="1" as="geometry">
            <mxPoint as="offset" />
          </mxGeometry>
        </mxCell>
        <mxCell id="hY6Mu5wa5ivJoahVfjo8-115" value="Show Task List" style="whiteSpace=wrap;html=1;fontSize=16;imageAspect=1;absoluteArcSize=0;rounded=1;" vertex="1" parent="1">
          <mxGeometry x="3240" y="2950" width="160" height="160" as="geometry" />
        </mxCell>
        <mxCell id="hY6Mu5wa5ivJoahVfjo8-123" style="edgeStyle=none;curved=1;rounded=0;orthogonalLoop=1;jettySize=auto;html=1;fontSize=12;startSize=8;endSize=8;" edge="1" parent="1" source="hY6Mu5wa5ivJoahVfjo8-121" target="hY6Mu5wa5ivJoahVfjo8-74">
          <mxGeometry relative="1" as="geometry" />
        </mxCell>
        <mxCell id="hY6Mu5wa5ivJoahVfjo8-124" value="Task Info" style="edgeLabel;html=1;align=center;verticalAlign=middle;resizable=0;points=[];fontSize=16;" vertex="1" connectable="0" parent="hY6Mu5wa5ivJoahVfjo8-123">
          <mxGeometry relative="1" as="geometry">
            <mxPoint as="offset" />
          </mxGeometry>
        </mxCell>
        <mxCell id="hY6Mu5wa5ivJoahVfjo8-121" value="Show Task Info" style="whiteSpace=wrap;html=1;fontSize=16;imageAspect=1;absoluteArcSize=0;rounded=1;" vertex="1" parent="1">
          <mxGeometry x="3040" y="3380" width="160" height="160" as="geometry" />
        </mxCell>
        <mxCell id="hY6Mu5wa5ivJoahVfjo8-130" style="edgeStyle=none;curved=1;rounded=0;orthogonalLoop=1;jettySize=auto;html=1;fontSize=12;startSize=8;endSize=8;" edge="1" parent="1" source="hY6Mu5wa5ivJoahVfjo8-128" target="hY6Mu5wa5ivJoahVfjo8-74">
          <mxGeometry relative="1" as="geometry" />
        </mxCell>
        <mxCell id="hY6Mu5wa5ivJoahVfjo8-132" value="Notebook Info" style="edgeLabel;html=1;align=center;verticalAlign=middle;resizable=0;points=[];fontSize=16;" vertex="1" connectable="0" parent="hY6Mu5wa5ivJoahVfjo8-130">
          <mxGeometry relative="1" as="geometry">
            <mxPoint as="offset" />
          </mxGeometry>
        </mxCell>
        <mxCell id="hY6Mu5wa5ivJoahVfjo8-128" value="Show Notebook Info" style="whiteSpace=wrap;html=1;fontSize=16;imageAspect=1;absoluteArcSize=0;rounded=1;" vertex="1" parent="1">
          <mxGeometry x="3890" y="2060" width="160" height="160" as="geometry" />
        </mxCell>
        <mxCell id="hY6Mu5wa5ivJoahVfjo8-145" style="edgeStyle=none;curved=1;rounded=0;orthogonalLoop=1;jettySize=auto;html=1;fontSize=12;startSize=8;endSize=8;" edge="1" parent="1" source="hY6Mu5wa5ivJoahVfjo8-141" target="hY6Mu5wa5ivJoahVfjo8-144">
          <mxGeometry relative="1" as="geometry" />
        </mxCell>
        <mxCell id="hY6Mu5wa5ivJoahVfjo8-146" value="Processed Ringtone Detail" style="edgeLabel;html=1;align=center;verticalAlign=middle;resizable=0;points=[];fontSize=16;" vertex="1" connectable="0" parent="hY6Mu5wa5ivJoahVfjo8-145">
          <mxGeometry relative="1" as="geometry">
            <mxPoint as="offset" />
          </mxGeometry>
        </mxCell>
        <mxCell id="hY6Mu5wa5ivJoahVfjo8-141" value="Add Ringtone" style="whiteSpace=wrap;html=1;fontSize=16;imageAspect=1;absoluteArcSize=0;rounded=1;" vertex="1" parent="1">
          <mxGeometry x="1270" y="1520" width="160" height="160" as="geometry" />
        </mxCell>
        <mxCell id="hY6Mu5wa5ivJoahVfjo8-156" style="edgeStyle=none;curved=1;rounded=0;orthogonalLoop=1;jettySize=auto;html=1;fontSize=12;startSize=8;endSize=8;" edge="1" parent="1" source="hY6Mu5wa5ivJoahVfjo8-144" target="hY6Mu5wa5ivJoahVfjo8-152">
          <mxGeometry relative="1" as="geometry" />
        </mxCell>
        <mxCell id="hY6Mu5wa5ivJoahVfjo8-157" value="Processed Ringtone Detail" style="edgeLabel;html=1;align=center;verticalAlign=middle;resizable=0;points=[];fontSize=16;" vertex="1" connectable="0" parent="hY6Mu5wa5ivJoahVfjo8-156">
          <mxGeometry relative="1" as="geometry">
            <mxPoint as="offset" />
          </mxGeometry>
        </mxCell>
        <mxCell id="hY6Mu5wa5ivJoahVfjo8-144" value="Ringtone Store" style="whiteSpace=wrap;html=1;fontSize=16;imageAspect=1;" vertex="1" parent="1">
          <mxGeometry x="1010" y="980" width="320" height="80" as="geometry" />
        </mxCell>
        <mxCell id="hY6Mu5wa5ivJoahVfjo8-149" style="edgeStyle=none;curved=1;rounded=0;orthogonalLoop=1;jettySize=auto;html=1;fontSize=12;startSize=8;endSize=8;" edge="1" parent="1" source="hY6Mu5wa5ivJoahVfjo8-147" target="hY6Mu5wa5ivJoahVfjo8-144">
          <mxGeometry relative="1" as="geometry" />
        </mxCell>
        <mxCell id="hY6Mu5wa5ivJoahVfjo8-151" value="Processed Ringtone Detail" style="edgeLabel;html=1;align=center;verticalAlign=middle;resizable=0;points=[];fontSize=16;" vertex="1" connectable="0" parent="hY6Mu5wa5ivJoahVfjo8-149">
          <mxGeometry relative="1" as="geometry">
            <mxPoint as="offset" />
          </mxGeometry>
        </mxCell>
        <mxCell id="hY6Mu5wa5ivJoahVfjo8-147" value="Edit Ringtone" style="whiteSpace=wrap;html=1;fontSize=16;imageAspect=1;absoluteArcSize=0;rounded=1;" vertex="1" parent="1">
          <mxGeometry x="1590" y="1360" width="160" height="160" as="geometry" />
        </mxCell>
        <mxCell id="hY6Mu5wa5ivJoahVfjo8-158" style="edgeStyle=none;curved=1;rounded=0;orthogonalLoop=1;jettySize=auto;html=1;fontSize=12;startSize=8;endSize=8;" edge="1" parent="1" source="hY6Mu5wa5ivJoahVfjo8-152" target="hY6Mu5wa5ivJoahVfjo8-74">
          <mxGeometry relative="1" as="geometry" />
        </mxCell>
        <mxCell id="hY6Mu5wa5ivJoahVfjo8-159" value="Ringtone Info" style="edgeLabel;html=1;align=center;verticalAlign=middle;resizable=0;points=[];fontSize=16;" vertex="1" connectable="0" parent="hY6Mu5wa5ivJoahVfjo8-158">
          <mxGeometry relative="1" as="geometry">
            <mxPoint as="offset" />
          </mxGeometry>
        </mxCell>
        <mxCell id="hY6Mu5wa5ivJoahVfjo8-152" value="Show Ringtone Info" style="whiteSpace=wrap;html=1;fontSize=16;imageAspect=1;absoluteArcSize=0;rounded=1;" vertex="1" parent="1">
          <mxGeometry x="1910" y="1200" width="160" height="160" as="geometry" />
        </mxCell>
        <mxCell id="hY6Mu5wa5ivJoahVfjo8-160" style="edgeStyle=none;curved=1;rounded=0;orthogonalLoop=1;jettySize=auto;html=1;exitX=0.5;exitY=1;exitDx=0;exitDy=0;fontSize=12;startSize=8;endSize=8;" edge="1" parent="1" source="hY6Mu5wa5ivJoahVfjo8-152" target="hY6Mu5wa5ivJoahVfjo8-152">
          <mxGeometry relative="1" as="geometry" />
        </mxCell>
        <mxCell id="hY6Mu5wa5ivJoahVfjo8-164" style="edgeStyle=none;curved=1;rounded=0;orthogonalLoop=1;jettySize=auto;html=1;fontSize=12;startSize=8;endSize=8;" edge="1" parent="1" source="hY6Mu5wa5ivJoahVfjo8-162" target="hY6Mu5wa5ivJoahVfjo8-112">
          <mxGeometry relative="1" as="geometry" />
        </mxCell>
        <mxCell id="hY6Mu5wa5ivJoahVfjo8-162" value="Edit Tag" style="whiteSpace=wrap;html=1;fontSize=16;imageAspect=1;absoluteArcSize=0;rounded=1;" vertex="1" parent="1">
          <mxGeometry x="2570" y="1150" width="160" height="160" as="geometry" />
        </mxCell>
        <mxCell id="hY6Mu5wa5ivJoahVfjo8-168" style="edgeStyle=none;curved=1;rounded=0;orthogonalLoop=1;jettySize=auto;html=1;fontSize=12;startSize=8;endSize=8;" edge="1" parent="1" source="hY6Mu5wa5ivJoahVfjo8-166" target="hY6Mu5wa5ivJoahVfjo8-74">
          <mxGeometry relative="1" as="geometry" />
        </mxCell>
        <mxCell id="hY6Mu5wa5ivJoahVfjo8-169" value="Tag List" style="edgeLabel;html=1;align=center;verticalAlign=middle;resizable=0;points=[];fontSize=16;" vertex="1" connectable="0" parent="hY6Mu5wa5ivJoahVfjo8-168">
          <mxGeometry relative="1" as="geometry">
            <mxPoint as="offset" />
          </mxGeometry>
        </mxCell>
        <mxCell id="hY6Mu5wa5ivJoahVfjo8-166" value="Show&amp;nbsp; Tag List" style="whiteSpace=wrap;html=1;fontSize=16;imageAspect=1;absoluteArcSize=0;rounded=1;" vertex="1" parent="1">
          <mxGeometry x="2800" y="1150" width="160" height="160" as="geometry" />
        </mxCell>
        <mxCell id="hY6Mu5wa5ivJoahVfjo8-170" value="Edit Notebook" style="whiteSpace=wrap;html=1;fontSize=16;imageAspect=1;absoluteArcSize=0;rounded=1;" vertex="1" parent="1">
          <mxGeometry x="3790" y="1780" width="160" height="160" as="geometry" />
        </mxCell>
        <mxCell id="hY6Mu5wa5ivJoahVfjo8-176" style="edgeStyle=none;curved=1;rounded=0;orthogonalLoop=1;jettySize=auto;html=1;fontSize=12;startSize=8;endSize=8;" edge="1" parent="1" source="hY6Mu5wa5ivJoahVfjo8-170" target="hY6Mu5wa5ivJoahVfjo8-73">
          <mxGeometry relative="1" as="geometry">
            <mxPoint x="3900" y="1707" as="sourcePoint" />
            <mxPoint x="4770" y="1786" as="targetPoint" />
          </mxGeometry>
        </mxCell>
        <mxCell id="hY6Mu5wa5ivJoahVfjo8-177" value="Processed Notebook Detail" style="edgeLabel;html=1;align=center;verticalAlign=middle;resizable=0;points=[];fontSize=16;" vertex="1" connectable="0" parent="hY6Mu5wa5ivJoahVfjo8-176">
          <mxGeometry relative="1" as="geometry">
            <mxPoint as="offset" />
          </mxGeometry>
        </mxCell>
        <mxCell id="hY6Mu5wa5ivJoahVfjo8-182" style="edgeStyle=none;curved=1;rounded=0;orthogonalLoop=1;jettySize=auto;html=1;fontSize=12;startSize=8;endSize=8;" edge="1" parent="1" source="hY6Mu5wa5ivJoahVfjo8-104" target="hY6Mu5wa5ivJoahVfjo8-128">
          <mxGeometry relative="1" as="geometry">
            <mxPoint x="4293" y="3540" as="sourcePoint" />
            <mxPoint x="4410" y="2140" as="targetPoint" />
          </mxGeometry>
        </mxCell>
        <mxCell id="hY6Mu5wa5ivJoahVfjo8-183" value="Processed Task Detail" style="edgeLabel;html=1;align=center;verticalAlign=middle;resizable=0;points=[];fontSize=16;" vertex="1" connectable="0" parent="hY6Mu5wa5ivJoahVfjo8-182">
          <mxGeometry relative="1" as="geometry">
            <mxPoint as="offset" />
          </mxGeometry>
        </mxCell>
        <mxCell id="hY6Mu5wa5ivJoahVfjo8-184" value="Show Notebook List" style="whiteSpace=wrap;html=1;fontSize=16;imageAspect=1;absoluteArcSize=0;rounded=1;" vertex="1" parent="1">
          <mxGeometry x="3660" y="1290" width="160" height="160" as="geometry" />
        </mxCell>
        <mxCell id="hY6Mu5wa5ivJoahVfjo8-185" style="edgeStyle=none;curved=1;rounded=0;orthogonalLoop=1;jettySize=auto;html=1;fontSize=12;startSize=8;endSize=8;" edge="1" parent="1" source="hY6Mu5wa5ivJoahVfjo8-184" target="hY6Mu5wa5ivJoahVfjo8-73">
          <mxGeometry relative="1" as="geometry">
            <mxPoint x="3900" y="1420" as="sourcePoint" />
            <mxPoint x="4770" y="1537" as="targetPoint" />
          </mxGeometry>
        </mxCell>
        <mxCell id="hY6Mu5wa5ivJoahVfjo8-186" value="Processed Notebook Detail" style="edgeLabel;html=1;align=center;verticalAlign=middle;resizable=0;points=[];fontSize=16;" vertex="1" connectable="0" parent="hY6Mu5wa5ivJoahVfjo8-185">
          <mxGeometry relative="1" as="geometry">
            <mxPoint as="offset" />
          </mxGeometry>
        </mxCell>
        <mxCell id="hY6Mu5wa5ivJoahVfjo8-187" style="edgeStyle=none;curved=1;rounded=0;orthogonalLoop=1;jettySize=auto;html=1;fontSize=12;startSize=8;endSize=8;" edge="1" parent="1" source="hY6Mu5wa5ivJoahVfjo8-184" target="hY6Mu5wa5ivJoahVfjo8-74">
          <mxGeometry relative="1" as="geometry">
            <mxPoint x="3580" y="1540" as="sourcePoint" />
            <mxPoint x="2550" y="1652" as="targetPoint" />
          </mxGeometry>
        </mxCell>
        <mxCell id="hY6Mu5wa5ivJoahVfjo8-188" value="Notebook List" style="edgeLabel;html=1;align=center;verticalAlign=middle;resizable=0;points=[];fontSize=16;" vertex="1" connectable="0" parent="hY6Mu5wa5ivJoahVfjo8-187">
          <mxGeometry relative="1" as="geometry">
            <mxPoint as="offset" />
          </mxGeometry>
        </mxCell>
        <mxCell id="hY6Mu5wa5ivJoahVfjo8-189" style="edgeStyle=none;curved=1;rounded=0;orthogonalLoop=1;jettySize=auto;html=1;fontSize=12;startSize=8;endSize=8;" edge="1" parent="1" source="hY6Mu5wa5ivJoahVfjo8-90" target="hY6Mu5wa5ivJoahVfjo8-128">
          <mxGeometry relative="1" as="geometry">
            <mxPoint x="1770" y="3789" as="sourcePoint" />
            <mxPoint x="2902" y="3210" as="targetPoint" />
          </mxGeometry>
        </mxCell>
        <mxCell id="hY6Mu5wa5ivJoahVfjo8-190" value="Processed Note Detail" style="edgeLabel;html=1;align=center;verticalAlign=middle;resizable=0;points=[];fontSize=16;" vertex="1" connectable="0" parent="hY6Mu5wa5ivJoahVfjo8-189">
          <mxGeometry relative="1" as="geometry">
            <mxPoint as="offset" />
          </mxGeometry>
        </mxCell>
        <mxCell id="hY6Mu5wa5ivJoahVfjo8-192" style="edgeStyle=none;curved=1;rounded=0;orthogonalLoop=1;jettySize=auto;html=1;fontSize=12;startSize=8;endSize=8;" edge="1" parent="1" source="hY6Mu5wa5ivJoahVfjo8-107" target="hY6Mu5wa5ivJoahVfjo8-128">
          <mxGeometry relative="1" as="geometry">
            <mxPoint x="1080" y="2860" as="sourcePoint" />
            <mxPoint x="2980" y="3091" as="targetPoint" />
          </mxGeometry>
        </mxCell>
        <mxCell id="hY6Mu5wa5ivJoahVfjo8-193" value="Processed Reminder Detail" style="edgeLabel;html=1;align=center;verticalAlign=middle;resizable=0;points=[];fontSize=16;" vertex="1" connectable="0" parent="hY6Mu5wa5ivJoahVfjo8-192">
          <mxGeometry relative="1" as="geometry">
            <mxPoint as="offset" />
          </mxGeometry>
        </mxCell>
        <mxCell id="hY6Mu5wa5ivJoahVfjo8-194" value="Edit Task" style="whiteSpace=wrap;html=1;fontSize=16;imageAspect=1;absoluteArcSize=0;rounded=1;" vertex="1" parent="1">
          <mxGeometry x="3440" y="2800" width="160" height="160" as="geometry" />
        </mxCell>
        <mxCell id="hY6Mu5wa5ivJoahVfjo8-195" style="edgeStyle=none;curved=1;rounded=0;orthogonalLoop=1;jettySize=auto;html=1;fontSize=12;startSize=8;endSize=8;" edge="1" parent="1" source="hY6Mu5wa5ivJoahVfjo8-74" target="hY6Mu5wa5ivJoahVfjo8-194">
          <mxGeometry relative="1" as="geometry">
            <mxPoint x="2960" y="2080" as="sourcePoint" />
            <mxPoint x="3484" y="2740" as="targetPoint" />
          </mxGeometry>
        </mxCell>
        <mxCell id="hY6Mu5wa5ivJoahVfjo8-196" value="Updated Task Detail" style="edgeLabel;html=1;align=center;verticalAlign=middle;resizable=0;points=[];fontSize=16;" vertex="1" connectable="0" parent="hY6Mu5wa5ivJoahVfjo8-195">
          <mxGeometry relative="1" as="geometry">
            <mxPoint as="offset" />
          </mxGeometry>
        </mxCell>
        <mxCell id="hY6Mu5wa5ivJoahVfjo8-197" style="edgeStyle=none;curved=1;rounded=0;orthogonalLoop=1;jettySize=auto;html=1;fontSize=12;startSize=8;endSize=8;" edge="1" parent="1" source="hY6Mu5wa5ivJoahVfjo8-194" target="hY6Mu5wa5ivJoahVfjo8-104">
          <mxGeometry relative="1" as="geometry">
            <mxPoint x="3850" y="2750" as="sourcePoint" />
            <mxPoint x="4678" y="3288" as="targetPoint" />
          </mxGeometry>
        </mxCell>
        <mxCell id="hY6Mu5wa5ivJoahVfjo8-198" value="Processed Task Detail" style="edgeLabel;html=1;align=center;verticalAlign=middle;resizable=0;points=[];fontSize=16;" vertex="1" connectable="0" parent="hY6Mu5wa5ivJoahVfjo8-197">
          <mxGeometry relative="1" as="geometry">
            <mxPoint as="offset" />
          </mxGeometry>
        </mxCell>
        <mxCell id="hY6Mu5wa5ivJoahVfjo8-199" value="Delete Notebook" style="whiteSpace=wrap;html=1;fontSize=16;imageAspect=1;absoluteArcSize=0;rounded=1;" vertex="1" parent="1">
          <mxGeometry x="3760" y="2400" width="160" height="160" as="geometry" />
        </mxCell>
        <mxCell id="hY6Mu5wa5ivJoahVfjo8-204" style="edgeStyle=none;curved=1;rounded=0;orthogonalLoop=1;jettySize=auto;html=1;fontSize=12;startSize=8;endSize=8;" edge="1" parent="1" source="hY6Mu5wa5ivJoahVfjo8-74" target="hY6Mu5wa5ivJoahVfjo8-199">
          <mxGeometry relative="1" as="geometry">
            <mxPoint x="2970" y="2440" as="sourcePoint" />
            <mxPoint x="4010" y="2214" as="targetPoint" />
          </mxGeometry>
        </mxCell>
        <mxCell id="hY6Mu5wa5ivJoahVfjo8-205" value="Target Notebook" style="edgeLabel;html=1;align=center;verticalAlign=middle;resizable=0;points=[];fontSize=16;" vertex="1" connectable="0" parent="hY6Mu5wa5ivJoahVfjo8-204">
          <mxGeometry relative="1" as="geometry">
            <mxPoint as="offset" />
          </mxGeometry>
        </mxCell>
        <mxCell id="hY6Mu5wa5ivJoahVfjo8-206" style="edgeStyle=none;curved=1;rounded=0;orthogonalLoop=1;jettySize=auto;html=1;fontSize=12;startSize=8;endSize=8;" edge="1" parent="1" source="hY6Mu5wa5ivJoahVfjo8-199" target="hY6Mu5wa5ivJoahVfjo8-73">
          <mxGeometry relative="1" as="geometry">
            <mxPoint x="4160" y="2360" as="sourcePoint" />
            <mxPoint x="5200" y="2638" as="targetPoint" />
          </mxGeometry>
        </mxCell>
        <mxCell id="hY6Mu5wa5ivJoahVfjo8-207" value="Delete Notebook" style="edgeLabel;html=1;align=center;verticalAlign=middle;resizable=0;points=[];fontSize=16;" vertex="1" connectable="0" parent="hY6Mu5wa5ivJoahVfjo8-206">
          <mxGeometry relative="1" as="geometry">
            <mxPoint as="offset" />
          </mxGeometry>
        </mxCell>
        <mxCell id="hY6Mu5wa5ivJoahVfjo8-208" style="edgeStyle=none;curved=1;rounded=0;orthogonalLoop=1;jettySize=auto;html=1;fontSize=12;startSize=8;endSize=8;" edge="1" parent="1" source="hY6Mu5wa5ivJoahVfjo8-199" target="hY6Mu5wa5ivJoahVfjo8-104">
          <mxGeometry relative="1" as="geometry">
            <mxPoint x="3960" y="2400" as="sourcePoint" />
            <mxPoint x="4865" y="1840" as="targetPoint" />
          </mxGeometry>
        </mxCell>
        <mxCell id="hY6Mu5wa5ivJoahVfjo8-209" value="Delete Task" style="edgeLabel;html=1;align=center;verticalAlign=middle;resizable=0;points=[];fontSize=16;" vertex="1" connectable="0" parent="hY6Mu5wa5ivJoahVfjo8-208">
          <mxGeometry relative="1" as="geometry">
            <mxPoint as="offset" />
          </mxGeometry>
        </mxCell>
        <mxCell id="hY6Mu5wa5ivJoahVfjo8-210" style="edgeStyle=none;curved=1;rounded=0;orthogonalLoop=1;jettySize=auto;html=1;fontSize=12;startSize=8;endSize=8;" edge="1" parent="1" source="hY6Mu5wa5ivJoahVfjo8-199" target="hY6Mu5wa5ivJoahVfjo8-90">
          <mxGeometry relative="1" as="geometry">
            <mxPoint x="3910" y="2530" as="sourcePoint" />
            <mxPoint x="4285" y="3540" as="targetPoint" />
          </mxGeometry>
        </mxCell>
        <mxCell id="hY6Mu5wa5ivJoahVfjo8-211" value="Delete Note" style="edgeLabel;html=1;align=center;verticalAlign=middle;resizable=0;points=[];fontSize=16;" vertex="1" connectable="0" parent="hY6Mu5wa5ivJoahVfjo8-210">
          <mxGeometry relative="1" as="geometry">
            <mxPoint as="offset" />
          </mxGeometry>
        </mxCell>
        <mxCell id="hY6Mu5wa5ivJoahVfjo8-212" style="edgeStyle=none;curved=1;rounded=0;orthogonalLoop=1;jettySize=auto;html=1;fontSize=12;startSize=8;endSize=8;" edge="1" parent="1" source="hY6Mu5wa5ivJoahVfjo8-199" target="hY6Mu5wa5ivJoahVfjo8-107">
          <mxGeometry relative="1" as="geometry">
            <mxPoint x="3800" y="2507" as="sourcePoint" />
            <mxPoint x="1806" y="3930" as="targetPoint" />
          </mxGeometry>
        </mxCell>
        <mxCell id="hY6Mu5wa5ivJoahVfjo8-213" value="Delete Reminder" style="edgeLabel;html=1;align=center;verticalAlign=middle;resizable=0;points=[];fontSize=16;" vertex="1" connectable="0" parent="hY6Mu5wa5ivJoahVfjo8-212">
          <mxGeometry relative="1" as="geometry">
            <mxPoint as="offset" />
          </mxGeometry>
        </mxCell>
        <mxCell id="hY6Mu5wa5ivJoahVfjo8-214" value="Delete Note" style="whiteSpace=wrap;html=1;fontSize=16;imageAspect=1;absoluteArcSize=0;rounded=1;" vertex="1" parent="1">
          <mxGeometry x="1910" y="3000" width="160" height="160" as="geometry" />
        </mxCell>
        <mxCell id="hY6Mu5wa5ivJoahVfjo8-215" value="Edit Note" style="whiteSpace=wrap;html=1;fontSize=16;imageAspect=1;absoluteArcSize=0;rounded=1;" vertex="1" parent="1">
          <mxGeometry x="1710" y="2970" width="160" height="160" as="geometry" />
        </mxCell>
        <mxCell id="hY6Mu5wa5ivJoahVfjo8-216" style="edgeStyle=none;curved=1;rounded=0;orthogonalLoop=1;jettySize=auto;html=1;fontSize=12;startSize=8;endSize=8;" edge="1" parent="1" source="hY6Mu5wa5ivJoahVfjo8-74" target="hY6Mu5wa5ivJoahVfjo8-215">
          <mxGeometry relative="1" as="geometry">
            <mxPoint x="2600" y="2196" as="sourcePoint" />
            <mxPoint x="1680" y="2954" as="targetPoint" />
          </mxGeometry>
        </mxCell>
        <mxCell id="hY6Mu5wa5ivJoahVfjo8-217" value="Updated Note Detail" style="edgeLabel;html=1;align=center;verticalAlign=middle;resizable=0;points=[];fontSize=16;" vertex="1" connectable="0" parent="hY6Mu5wa5ivJoahVfjo8-216">
          <mxGeometry relative="1" as="geometry">
            <mxPoint as="offset" />
          </mxGeometry>
        </mxCell>
        <mxCell id="hY6Mu5wa5ivJoahVfjo8-218" style="edgeStyle=none;curved=1;rounded=0;orthogonalLoop=1;jettySize=auto;html=1;fontSize=12;startSize=8;endSize=8;" edge="1" parent="1" source="hY6Mu5wa5ivJoahVfjo8-215" target="hY6Mu5wa5ivJoahVfjo8-90">
          <mxGeometry relative="1" as="geometry">
            <mxPoint x="1613" y="3100" as="sourcePoint" />
            <mxPoint x="1744" y="3930" as="targetPoint" />
          </mxGeometry>
        </mxCell>
        <mxCell id="hY6Mu5wa5ivJoahVfjo8-219" value="Processed Note Detail" style="edgeLabel;html=1;align=center;verticalAlign=middle;resizable=0;points=[];fontSize=16;" vertex="1" connectable="0" parent="hY6Mu5wa5ivJoahVfjo8-218">
          <mxGeometry relative="1" as="geometry">
            <mxPoint as="offset" />
          </mxGeometry>
        </mxCell>
        <mxCell id="hY6Mu5wa5ivJoahVfjo8-220" style="edgeStyle=none;curved=1;rounded=0;orthogonalLoop=1;jettySize=auto;html=1;fontSize=12;startSize=8;endSize=8;" edge="1" parent="1" source="hY6Mu5wa5ivJoahVfjo8-214" target="hY6Mu5wa5ivJoahVfjo8-90">
          <mxGeometry relative="1" as="geometry">
            <mxPoint x="3770" y="2546" as="sourcePoint" />
            <mxPoint x="1807" y="3930" as="targetPoint" />
          </mxGeometry>
        </mxCell>
        <mxCell id="hY6Mu5wa5ivJoahVfjo8-221" value="Delete Note" style="edgeLabel;html=1;align=center;verticalAlign=middle;resizable=0;points=[];fontSize=16;" vertex="1" connectable="0" parent="hY6Mu5wa5ivJoahVfjo8-220">
          <mxGeometry relative="1" as="geometry">
            <mxPoint as="offset" />
          </mxGeometry>
        </mxCell>
        <mxCell id="hY6Mu5wa5ivJoahVfjo8-222" style="edgeStyle=none;curved=1;rounded=0;orthogonalLoop=1;jettySize=auto;html=1;fontSize=12;startSize=8;endSize=8;" edge="1" parent="1" source="hY6Mu5wa5ivJoahVfjo8-74" target="hY6Mu5wa5ivJoahVfjo8-214">
          <mxGeometry relative="1" as="geometry">
            <mxPoint x="2370" y="2440" as="sourcePoint" />
            <mxPoint x="3380" y="2750" as="targetPoint" />
          </mxGeometry>
        </mxCell>
        <mxCell id="hY6Mu5wa5ivJoahVfjo8-223" value="Target Note" style="edgeLabel;html=1;align=center;verticalAlign=middle;resizable=0;points=[];fontSize=16;" vertex="1" connectable="0" parent="hY6Mu5wa5ivJoahVfjo8-222">
          <mxGeometry relative="1" as="geometry">
            <mxPoint as="offset" />
          </mxGeometry>
        </mxCell>
        <mxCell id="hY6Mu5wa5ivJoahVfjo8-224" value="Show Note Info" style="whiteSpace=wrap;html=1;fontSize=16;imageAspect=1;absoluteArcSize=0;rounded=1;" vertex="1" parent="1">
          <mxGeometry x="2110" y="3030" width="160" height="160" as="geometry" />
        </mxCell>
        <mxCell id="hY6Mu5wa5ivJoahVfjo8-225" style="edgeStyle=none;curved=1;rounded=0;orthogonalLoop=1;jettySize=auto;html=1;fontSize=12;startSize=8;endSize=8;" edge="1" parent="1" source="hY6Mu5wa5ivJoahVfjo8-224" target="hY6Mu5wa5ivJoahVfjo8-74">
          <mxGeometry relative="1" as="geometry">
            <mxPoint x="3055" y="3320" as="sourcePoint" />
            <mxPoint x="2705" y="2210" as="targetPoint" />
          </mxGeometry>
        </mxCell>
        <mxCell id="hY6Mu5wa5ivJoahVfjo8-226" value="Note Info" style="edgeLabel;html=1;align=center;verticalAlign=middle;resizable=0;points=[];fontSize=16;" vertex="1" connectable="0" parent="hY6Mu5wa5ivJoahVfjo8-225">
          <mxGeometry relative="1" as="geometry">
            <mxPoint as="offset" />
          </mxGeometry>
        </mxCell>
        <mxCell id="hY6Mu5wa5ivJoahVfjo8-227" style="edgeStyle=none;curved=1;rounded=0;orthogonalLoop=1;jettySize=auto;html=1;fontSize=12;startSize=8;endSize=8;" edge="1" parent="1" source="hY6Mu5wa5ivJoahVfjo8-90" target="hY6Mu5wa5ivJoahVfjo8-224">
          <mxGeometry relative="1" as="geometry">
            <mxPoint x="1843" y="3930" as="sourcePoint" />
            <mxPoint x="3000" y="3434" as="targetPoint" />
          </mxGeometry>
        </mxCell>
        <mxCell id="hY6Mu5wa5ivJoahVfjo8-228" value="Processed Note Detail" style="edgeLabel;html=1;align=center;verticalAlign=middle;resizable=0;points=[];fontSize=16;" vertex="1" connectable="0" parent="hY6Mu5wa5ivJoahVfjo8-227">
          <mxGeometry relative="1" as="geometry">
            <mxPoint as="offset" />
          </mxGeometry>
        </mxCell>
        <mxCell id="hY6Mu5wa5ivJoahVfjo8-229" value="Delete Task" style="whiteSpace=wrap;html=1;fontSize=16;imageAspect=1;absoluteArcSize=0;rounded=1;" vertex="1" parent="1">
          <mxGeometry x="3620" y="2670" width="160" height="160" as="geometry" />
        </mxCell>
        <mxCell id="hY6Mu5wa5ivJoahVfjo8-230" style="edgeStyle=none;curved=1;rounded=0;orthogonalLoop=1;jettySize=auto;html=1;fontSize=12;startSize=8;endSize=8;" edge="1" parent="1" source="hY6Mu5wa5ivJoahVfjo8-74" target="hY6Mu5wa5ivJoahVfjo8-229">
          <mxGeometry relative="1" as="geometry">
            <mxPoint x="2880" y="2150" as="sourcePoint" />
            <mxPoint x="3630" y="2710" as="targetPoint" />
          </mxGeometry>
        </mxCell>
        <mxCell id="hY6Mu5wa5ivJoahVfjo8-231" value="Target Task" style="edgeLabel;html=1;align=center;verticalAlign=middle;resizable=0;points=[];fontSize=16;" vertex="1" connectable="0" parent="hY6Mu5wa5ivJoahVfjo8-230">
          <mxGeometry relative="1" as="geometry">
            <mxPoint as="offset" />
          </mxGeometry>
        </mxCell>
        <mxCell id="hY6Mu5wa5ivJoahVfjo8-232" style="edgeStyle=none;curved=1;rounded=0;orthogonalLoop=1;jettySize=auto;html=1;fontSize=12;startSize=8;endSize=8;" edge="1" parent="1" source="hY6Mu5wa5ivJoahVfjo8-229" target="hY6Mu5wa5ivJoahVfjo8-104">
          <mxGeometry relative="1" as="geometry">
            <mxPoint x="3883" y="2570" as="sourcePoint" />
            <mxPoint x="4283" y="3540" as="targetPoint" />
          </mxGeometry>
        </mxCell>
        <mxCell id="hY6Mu5wa5ivJoahVfjo8-233" value="Delete Task" style="edgeLabel;html=1;align=center;verticalAlign=middle;resizable=0;points=[];fontSize=16;" vertex="1" connectable="0" parent="hY6Mu5wa5ivJoahVfjo8-232">
          <mxGeometry relative="1" as="geometry">
            <mxPoint as="offset" />
          </mxGeometry>
        </mxCell>
        <mxCell id="hY6Mu5wa5ivJoahVfjo8-234" value="Show Note List" style="whiteSpace=wrap;html=1;fontSize=16;imageAspect=1;absoluteArcSize=0;rounded=1;" vertex="1" parent="1">
          <mxGeometry x="2320" y="3030" width="160" height="160" as="geometry" />
        </mxCell>
        <mxCell id="hY6Mu5wa5ivJoahVfjo8-235" style="edgeStyle=none;curved=1;rounded=0;orthogonalLoop=1;jettySize=auto;html=1;fontSize=12;startSize=8;endSize=8;" edge="1" parent="1" source="hY6Mu5wa5ivJoahVfjo8-234" target="hY6Mu5wa5ivJoahVfjo8-74">
          <mxGeometry relative="1" as="geometry">
            <mxPoint x="2239" y="3040" as="sourcePoint" />
            <mxPoint x="2641" y="2210" as="targetPoint" />
          </mxGeometry>
        </mxCell>
        <mxCell id="hY6Mu5wa5ivJoahVfjo8-236" value="Note List" style="edgeLabel;html=1;align=center;verticalAlign=middle;resizable=0;points=[];fontSize=16;" vertex="1" connectable="0" parent="hY6Mu5wa5ivJoahVfjo8-235">
          <mxGeometry relative="1" as="geometry">
            <mxPoint as="offset" />
          </mxGeometry>
        </mxCell>
        <mxCell id="hY6Mu5wa5ivJoahVfjo8-237" style="edgeStyle=none;curved=1;rounded=0;orthogonalLoop=1;jettySize=auto;html=1;fontSize=12;startSize=8;endSize=8;" edge="1" parent="1" source="hY6Mu5wa5ivJoahVfjo8-90" target="hY6Mu5wa5ivJoahVfjo8-234">
          <mxGeometry relative="1" as="geometry">
            <mxPoint x="1771" y="3930" as="sourcePoint" />
            <mxPoint x="2158" y="3200" as="targetPoint" />
          </mxGeometry>
        </mxCell>
        <mxCell id="hY6Mu5wa5ivJoahVfjo8-238" value="Processed Note Detail" style="edgeLabel;html=1;align=center;verticalAlign=middle;resizable=0;points=[];fontSize=16;" vertex="1" connectable="0" parent="hY6Mu5wa5ivJoahVfjo8-237">
          <mxGeometry relative="1" as="geometry">
            <mxPoint as="offset" />
          </mxGeometry>
        </mxCell>
      </root>
    </mxGraphModel>
  </diagram>
</mxfile>
